<svg width="154" height="143" viewBox="0 0 154 143" fill="none" xmlns="http://www.w3.org/2000/svg">
<rect width="154" height="143" fill="black" fill-opacity="0.9"/>
<path d="M59.4138 74.344V48.744L53.5898 46.632V43.816H71.7018V46.632L65.8778 48.744V73.576C65.8778 78.8667 64.8538 82.8773 62.8058 85.608C60.7578 88.3387 57.2804 89.704 52.3738 89.704C50.7951 89.704 49.3018 89.4907 47.8938 89.064C46.4858 88.6373 45.4831 88.2107 44.8858 87.784L43.9258 87.144L46.1658 82.536C47.7444 83.9867 49.7924 84.712 52.3098 84.712C54.8698 84.712 56.6831 83.9227 57.7498 82.344C58.8591 80.7653 59.4138 78.0987 59.4138 74.344ZM78.9443 76.84H82.7843L84.5763 82.792C86.2403 84.1147 88.9496 84.776 92.7043 84.776C95.1363 84.776 97.0776 84.136 98.5283 82.856C100.022 81.576 100.768 79.976 100.768 78.056C100.768 76.0933 99.9576 74.2587 98.3363 72.552C96.7576 70.8027 94.0269 69.2027 90.1443 67.752C82.8056 64.9787 79.1363 61.096 79.1363 56.104C79.1363 51.9227 80.4589 48.744 83.1042 46.568C85.7496 44.3493 88.9923 43.24 92.8323 43.24C97.5256 43.24 101.536 44.0293 104.864 45.608C105.248 45.7787 105.611 45.9707 105.952 46.184V54.952L102.176 55.08L100.704 49.896C98.9549 49 96.6723 48.552 93.8563 48.552C88.0963 48.552 85.2163 50.3867 85.2163 54.056C85.2163 56.104 85.9843 57.8107 87.5203 59.176C89.0989 60.4987 91.5309 61.7573 94.8163 62.952C102.838 65.896 106.848 70.5893 106.848 77.032C106.848 80.7867 105.59 83.8373 103.072 86.184C100.555 88.5307 96.9069 89.704 92.1283 89.704C89.9523 89.704 87.7976 89.4267 85.6643 88.872C82.5496 88.0187 80.3096 87.0587 78.9443 85.992V76.84Z" fill="white"/>
</svg>
